<svg width="25" height="23" viewBox="0 0 25 23" fill="none" xmlns="http://www.w3.org/2000/svg">
<path opacity="0.3" d="M12.876 12.5781C13.5 12.5781 14.0058 12.0954 14.0058 11.5C14.0058 10.9046 13.5 10.4219 12.876 10.4219C12.252 10.4219 11.7461 10.9046 11.7461 11.5C11.7461 12.0954 12.252 12.5781 12.876 12.5781Z" fill="#059212"/>
<path d="M12.876 2.15625C7.4766 2.15625 3.08374 6.34791 3.08374 11.5C3.08374 16.6521 7.4766 20.8438 12.876 20.8438C18.2754 20.8438 22.6682 16.6521 22.6682 11.5C22.6682 6.34791 18.2754 2.15625 12.876 2.15625ZM17.8225 7.24725L15.6155 12.5121C15.4639 12.8737 15.237 13.2021 14.9484 13.4775C14.6598 13.7528 14.3156 13.9694 13.9367 14.114L8.4191 16.2199C8.35066 16.2461 8.27568 16.2525 8.20346 16.2383C8.13124 16.2242 8.06496 16.1902 8.01283 16.1404C7.9607 16.0907 7.92502 16.0274 7.9102 15.9585C7.89539 15.8896 7.9021 15.8181 7.92949 15.7528L10.1365 10.4879C10.2881 10.1263 10.515 9.79788 10.8036 9.52252C11.0922 9.24715 11.4364 9.0306 11.8153 8.886L17.3329 6.78006C17.4013 6.75392 17.4763 6.74752 17.5485 6.76165C17.6207 6.77579 17.687 6.80984 17.7391 6.85958C17.7913 6.90932 17.827 6.97257 17.8418 7.04148C17.8566 7.11039 17.8499 7.18194 17.8225 7.24725Z" fill="#059212"/>
</svg>
